# xmcd
#
# Track frame offsets:
#	182
#	15410
#	26120
#	39302
#	51612
#	68365
#	82505
#	95297
#	108115
#	121015
#	139702
#	151717
#	164170
#	176835
#	198145
#	217510
#	238347
#	251087
#
# Disc length: 3557 seconds
#
# Revision: 1
# Processed by: cddbd v1.4PL0 Copyright (c) Steve Scherf et al.
# Submitted via: audiograbber 1.81.03
#
DISCID=db0de312
DTITLE=Acker Bilk - In A Mellow Mood
DYEAR=1995
DGENRE=
TTITLE0=Stranger on the Shore
TTITLE1=Makin Whoopee
TTITLE2=Amazing Grace
TTITLE3=I'm An Old Cowhand
TTITLE4=Someone To Watch Over Me
TTITLE5=This Guy's In Love With You
TTITLE6=The Folks Who Live On The Hill
TTITLE7=What Are You Doing The Rest Of Your Life
TTITLE8=Travellin' On
TTITLE9=South Rampart Street Parade
TTITLE10=Wandering
TTITLE11=Raindrops Keep Falling On My Head
TTITLE12=Burgundy Street
TTITLE13=Without You
TTITLE14=Sweet Georgia Brown
TTITLE15=Bridge Over Troubled Water
TTITLE16=Going Home
TTITLE17=Auf Wiedersehen, My Dear
EXTD=
EXTT0=
EXTT1=
EXTT2=
EXTT3=
EXTT4=
EXTT5=
EXTT6=
EXTT7=
EXTT8=
EXTT9=
EXTT10=
EXTT11=
EXTT12=
EXTT13=
EXTT14=
EXTT15=
EXTT16=
EXTT17=
PLAYORDER=
